

[img]http://img512.imageshack.us/img512/9828/knightanddayposter.jpg[/img]
[code]

                         Knight And Day R5 AC3 LiNE XViD - IMAGiNE
********************************************************************************************************************

Ripper ...........: IMAGiNE                                        IMDB Rating.......:7.1/10                             
Video Codec.......: XVID                                         Release Date......:18/09/10
Audio Codec.......:AC3                                           Theatre Date......:23/06/10
Audio Bitrate.....:448                                              Runtime.......:1h 45mn
Subtitles.........:NIL                                                 Language..........:ENGLISH
Resolution...... 720 x 304                                      IMDb URL..........:http://www.imdb.com/title/tt1013743/


DETAILS:

Video
Format                           : MPEG-4 Visual
Format profile                   : Streaming Video@L1
Format settings, BVOP            : Yes
Format settings, QPel            : No
Format settings, GMC             : No warppoints
Format settings, Matrix          : Default
Muxing mode                      : Packed bitstream
Codec ID                         : XVID
Codec ID/Hint                    : XviD
Duration                         : 1h 45mn
Bit rate                         : 1 723 Kbps
Width                            : 720 pixels
Height                           : 304 pixels
Display aspect ratio             : 2.35
Frame rate                       : 25.000 fps
Resolution                       : 24 bits
Colorimetry                      : 4:2:0
Scan type                        : Progressive
Bits/(Pixel*Frame)               : 0.315
Stream size                      : 1.26 GiB (79%)
Writing library                  : XviD 50

Audio
Format                           : AC-3
Format/Info                      : Audio Coding 3
Codec ID                         : 2000
Duration                         : 1h 45mn
Bit rate mode                    : Constant
Bit rate                         : 448 Kbps
Channel(s)                       : 6 channels
Channel positions                : Front: L C R, Surround: L R, LFE
Sampling rate                    : 48.0 KHz
Stream size                      : 337 MiB (21%)
Alignment                        : Split accross interleaves
Interleave, duration             : 40 ms (1.00 video frame)
Interleave, preload duration     : 500 ms


SOURCES:

VIDEO:Russian dvd9 .............Thanks guys
AUDIO:iNK - Prism................. Thanks and top work 

NOTES:

IMAGiNE bringing you another release..........Knight And Day R5

Here we go with our encode,adding it to the 10 out already 
Well fr this we used the 5gig + dvdr and ripped the video and filter it using a script and some
of the filters in vdub.
The main things we did was made it brighter,reduced some chroma,made it sharper,also tweaked the 
rgb colours aswell as using a white balance.
Audio wise ......full credit goes to ink and prism,we just muxed their audio to our encode.

We know there is lots of releases out there already that are good,but this is our's thrown into the hat 
Enjoy 
[/code]
Screens:
[img]http://img841.imageshack.us/img841/6264/vlcsnap69342.png[/img]
[img]http://img684.imageshack.us/img684/6779/vlcsnap70226.png[/img]
[img]http://img530.imageshack.us/img530/6691/vlcsnap70406.png[/img]
[img]http://img691.imageshack.us/img691/1115/vlcsnap71780.png[/img]
[img]http://img816.imageshack.us/img816/4231/vlcsnap72057.png[/img]
